<?xml version="1.0" standalone="no"?>
<!DOCTYPE svg PUBLIC "-//W3C//DTD SVG 20010904//EN"
 "http://www.w3.org/TR/2001/REC-SVG-20010904/DTD/svg10.dtd">
<svg version="1.0" xmlns="http://www.w3.org/2000/svg"
 width="336.000000pt" height="336.000000pt" viewBox="0 0 336.000000 336.000000"
 preserveAspectRatio="xMidYMid meet">
<metadata>
Created by potrace 1.11, written by Peter Selinger 2001-2013
</metadata>
<g transform="translate(0.000000,336.000000) scale(0.100000,-0.100000)"
fill="#000000" stroke="none">
<path d="M1265 2412 c-49 -23 -61 -37 -84 -98 -15 -39 -24 -49 -55 -59 -46
-16 -80 -46 -100 -90 -14 -29 -16 -103 -16 -552 0 -325 4 -532 10 -555 14 -48
55 -97 97 -114 48 -20 1078 -20 1126 0 43 17 84 67 97 116 7 26 10 221 8 568
l-3 529 -28 37 c-16 20 -44 44 -62 53 -26 12 -36 26 -45 59 -15 51 -72 108
-118 119 -39 8 -115 -24 -132 -55 l-12 -22 -32 31 c-48 47 -95 57 -150 32 -24
-10 -50 -29 -56 -41 l-12 -22 -32 31 c-48 47 -95 57 -150 32 -24 -10 -49 -29
-56 -41 -11 -21 -12 -21 -51 14 -21 20 -45 36 -52 36 -6 0 -21 2 -32 5 -11 3
-38 -3 -60 -13z m87 -89 c8 -10 18 -26 21 -35 6 -16 -1 -18 -53 -18 -33 0 -60
4 -60 9 0 17 42 61 59 61 10 0 25 -8 33 -17z m250 0 c8 -10 18 -26 21 -35 6
-16 -1 -18 -53 -18 -33 0 -60 4 -60 9 0 17 42 61 59 61 10 0 25 -8 33 -17z
m250 0 c8 -10 18 -26 21 -35 6 -16 -1 -18 -53 -18 -33 0 -60 4 -60 9 0 17 42
61 59 61 10 0 25 -8 33 -17z m250 0 c8 -10 18 -26 21 -35 6 -16 -1 -18 -53
-18 -33 0 -60 4 -60 9 0 17 42 61 59 61 10 0 25 -8 33 -17z m-544 -600 l3 -83
-86 0 -85 0 0 85 0 86 83 -3 82 -3 3 -82z m202 2 l0 -85 -80 0 -80 0 0 85 0
85 80 0 80 0 0 -85z m210 0 l0 -85 -85 0 -85 0 0 78 c0 43 3 82 7 85 3 4 42 7
85 7 l78 0 0 -85z m210 0 l0 -85 -85 0 -85 0 0 78 c0 43 3 82 7 85 3 4 42 7
85 7 l78 0 0 -85z m-832 -212 l3 -83 -86 0 -85 0 0 85 0 86 83 -3 82 -3 3 -82z
m210 0 l3 -83 -86 0 -85 0 0 85 0 86 83 -3 82 -3 3 -82z m202 2 l0 -85 -80 0
-80 0 0 85 0 85 80 0 80 0 0 -85z m210 0 l0 -85 -85 0 -85 0 0 78 c0 43 3 82
7 85 3 4 42 7 85 7 l78 0 0 -85z m210 0 l0 -85 -85 0 -85 0 0 78 c0 43 3 82 7
85 3 4 42 7 85 7 l78 0 0 -85z m-830 -210 l0 -85 -85 0 -85 0 0 85 0 85 85 0
85 0 0 -85z m205 0 l0 -80 -82 -3 -83 -3 0 86 0 86 83 -3 82 -3 0 -80z m205 0
l0 -85 -80 0 -80 0 0 85 0 85 80 0 80 0 0 -85z m210 0 l0 -86 -82 3 -83 3 -3
69 c-2 38 -1 75 2 83 4 9 28 13 86 13 l80 0 0 -85z m190 77 c0 -4 -16 -31 -36
-61 l-36 -53 -23 22 c-16 15 -25 18 -30 10 -8 -12 41 -70 60 -70 5 0 25 25 43
55 18 30 35 55 38 55 2 0 4 -27 4 -60 l0 -60 -85 0 -85 0 0 85 0 85 75 0 c41
0 75 -3 75 -8z m-812 -284 l-3 -83 -82 -3 -83 -3 0 86 0 85 85 0 86 0 -3 -82z
m210 0 l-3 -83 -82 -3 -83 -3 0 86 0 85 85 0 86 0 -3 -82z m202 -3 l0 -85 -80
0 -80 0 0 85 0 85 80 0 80 0 0 -85z"/>
<path d="M1210 1510 c0 -56 3 -70 15 -70 11 0 15 11 15 38 1 32 2 34 12 18 11
-19 11 -19 24 -1 13 17 14 15 14 -18 0 -26 4 -37 15 -37 12 0 15 14 15 70 0
56 -3 70 -15 70 -8 0 -15 -4 -15 -8 0 -5 -6 -17 -14 -27 -14 -19 -15 -19 -27
8 -23 51 -39 33 -39 -43z"/>
<path d="M1420 1575 c0 -3 9 -23 20 -45 11 -22 20 -51 20 -65 0 -16 6 -25 15
-25 10 0 15 10 15 30 0 16 9 44 20 62 23 39 25 48 7 48 -7 0 -20 -14 -28 -32
l-15 -31 -13 31 c-8 18 -20 32 -27 32 -8 0 -14 -2 -14 -5z"/>
<path d="M1442 1368 c-17 -17 -15 -103 2 -117 24 -20 70 -10 74 17 4 25 -13
30 -22 7 -3 -8 -12 -15 -21 -15 -11 0 -15 11 -15 44 0 49 11 64 30 41 17 -21
30 -19 30 4 0 30 -54 43 -78 19z"/>
<path d="M1650 1314 c-24 -79 -24 -74 -5 -74 8 0 15 7 15 15 0 8 9 15 20 15
11 0 23 -7 26 -15 5 -13 34 -22 34 -11 0 2 -9 34 -20 70 -13 41 -26 66 -35 66
-9 0 -22 -25 -35 -66z m43 -4 c3 -12 0 -20 -8 -20 -8 0 -11 8 -8 20 3 11 7 20
8 20 1 0 5 -9 8 -20z"/>
<path d="M1850 1310 l0 -70 40 0 c22 0 40 5 40 10 0 6 -11 10 -25 10 -24 0
-25 3 -25 60 0 47 -3 60 -15 60 -12 0 -15 -14 -15 -70z"/>
</g>
</svg>
